solid VuCa
   facet normal 0.000000e+000 1.000000e+000 0.000000e+000
      outer loop
         vertex 6.400000e-002 5.000000e-003 1.600000e-002
         vertex 6.400000e-002 5.000000e-003 0.000000e+000
         vertex 4.700000e-002 5.000000e-003 1.600000e-002
      endloop
   endfacet
   facet normal 0.000000e+000 1.000000e+000 0.000000e+000
      outer loop
         vertex 4.700000e-002 5.000000e-003 1.600000e-002
         vertex 6.400000e-002 5.000000e-003 0.000000e+000
         vertex 4.700000e-002 5.000000e-003 0.000000e+000
      endloop
   endfacet
   facet normal 0.000000e+000 1.000000e+000 0.000000e+000
      outer loop
         vertex 0.000000e+000 5.000000e-003 0.000000e+000
         vertex 0.000000e+000 5.000000e-003 1.600000e-002
         vertex 1.700000e-002 5.000000e-003 0.000000e+000
      endloop
   endfacet
   facet normal 0.000000e+000 1.000000e+000 0.000000e+000
      outer loop
         vertex 1.700000e-002 5.000000e-003 0.000000e+000
         vertex 0.000000e+000 5.000000e-003 1.600000e-002
         vertex 1.700000e-002 5.000000e-003 1.600000e-002
      endloop
   endfacet
   facet normal 1.000000e+000 0.000000e+000 0.000000e+000
      outer loop
         vertex 6.400000e-002 5.000000e-003 0.000000e+000
         vertex 6.400000e-002 5.000000e-003 1.600000e-002
         vertex 6.400000e-002 0.000000e+000 0.000000e+000
      endloop
   endfacet
   facet normal 1.000000e+000 0.000000e+000 0.000000e+000
      outer loop
         vertex 6.400000e-002 0.000000e+000 0.000000e+000
         vertex 6.400000e-002 5.000000e-003 1.600000e-002
         vertex 6.400000e-002 0.000000e+000 1.600000e-002
      endloop
   endfacet
   facet normal 0.000000e+000 0.000000e+000 -1.000000e+000
      outer loop
         vertex 6.400000e-002 5.000000e-003 0.000000e+000
         vertex 6.400000e-002 0.000000e+000 0.000000e+000
         vertex 4.700000e-002 5.000000e-003 0.000000e+000
      endloop
   endfacet
   facet normal 0.000000e+000 0.000000e+000 -1.000000e+000
      outer loop
         vertex 4.700000e-002 5.000000e-003 0.000000e+000
         vertex 6.400000e-002 0.000000e+000 0.000000e+000
         vertex 0.000000e+000 0.000000e+000 0.000000e+000
      endloop
   endfacet
   facet normal 0.000000e+000 0.000000e+000 -1.000000e+000
      outer loop
         vertex 4.700000e-002 5.000000e-003 0.000000e+000
         vertex 0.000000e+000 0.000000e+000 0.000000e+000
         vertex 1.700000e-002 5.000000e-003 0.000000e+000
      endloop
   endfacet
   facet normal 0.000000e+000 0.000000e+000 -1.000000e+000
      outer loop
         vertex 1.700000e-002 5.000000e-003 0.000000e+000
         vertex 0.000000e+000 0.000000e+000 0.000000e+000
         vertex 0.000000e+000 5.000000e-003 0.000000e+000
      endloop
   endfacet
   facet normal 0.000000e+000 0.000000e+000 -1.000000e+000
      outer loop
         vertex 2.663769e-002 3.550049e-002 0.000000e+000
         vertex 1.700000e-002 5.000000e-003 0.000000e+000
         vertex 2.593782e-002 3.650000e-002 0.000000e+000
      endloop
   endfacet
   facet normal 0.000000e+000 0.000000e+000 -1.000000e+000
      outer loop
         vertex 2.593782e-002 3.650000e-002 0.000000e+000
         vertex 1.700000e-002 5.000000e-003 0.000000e+000
         vertex 2.542215e-002 3.760586e-002 0.000000e+000
      endloop
   endfacet
   facet normal 0.000000e+000 0.000000e+000 -1.000000e+000
      outer loop
         vertex 2.663769e-002 3.550049e-002 0.000000e+000
         vertex 2.750049e-002 3.463769e-002 0.000000e+000
         vertex 1.700000e-002 5.000000e-003 0.000000e+000
      endloop
   endfacet
   facet normal 0.000000e+000 0.000000e+000 -1.000000e+000
      outer loop
         vertex 1.700000e-002 5.000000e-003 0.000000e+000
         vertex 2.750049e-002 3.463769e-002 0.000000e+000
         vertex 2.850000e-002 3.393782e-002 0.000000e+000
      endloop
   endfacet
   facet normal 0.000000e+000 0.000000e+000 -1.000000e+000
      outer loop
         vertex 1.700000e-002 5.000000e-003 0.000000e+000
         vertex 2.850000e-002 3.393782e-002 0.000000e+000
         vertex 2.960586e-002 3.342215e-002 0.000000e+000
      endloop
   endfacet
   facet normal 0.000000e+000 0.000000e+000 -1.000000e+000
      outer loop
         vertex 3.736231e-002 3.550049e-002 0.000000e+000
         vertex 3.806218e-002 3.650000e-002 0.000000e+000
         vertex 4.700000e-002 5.000000e-003 0.000000e+000
      endloop
   endfacet
   facet normal 0.000000e+000 0.000000e+000 -1.000000e+000
      outer loop
         vertex 4.700000e-002 5.000000e-003 0.000000e+000
         vertex 3.806218e-002 3.650000e-002 0.000000e+000
         vertex 3.857785e-002 3.760586e-002 0.000000e+000
      endloop
   endfacet
   facet normal 0.000000e+000 0.000000e+000 -1.000000e+000
      outer loop
         vertex 2.960586e-002 3.342215e-002 0.000000e+000
         vertex 3.078446e-002 3.310635e-002 0.000000e+000
         vertex 1.700000e-002 5.000000e-003 0.000000e+000
      endloop
   endfacet
   facet normal 0.000000e+000 0.000000e+000 -1.000000e+000
      outer loop
         vertex 1.700000e-002 5.000000e-003 0.000000e+000
         vertex 3.078446e-002 3.310635e-002 0.000000e+000
         vertex 3.200000e-002 3.300000e-002 0.000000e+000
      endloop
   endfacet
   facet normal 0.000000e+000 0.000000e+000 -1.000000e+000
      outer loop
         vertex 1.700000e-002 5.000000e-003 0.000000e+000
         vertex 3.200000e-002 3.300000e-002 0.000000e+000
         vertex 4.700000e-002 5.000000e-003 0.000000e+000
      endloop
   endfacet
   facet normal 0.000000e+000 0.000000e+000 -1.000000e+000
      outer loop
         vertex 4.700000e-002 5.000000e-003 0.000000e+000
         vertex 3.200000e-002 3.300000e-002 0.000000e+000
         vertex 3.321554e-002 3.310635e-002 0.000000e+000
      endloop
   endfacet
   facet normal 0.000000e+000 0.000000e+000 -1.000000e+000
      outer loop
         vertex 4.700000e-002 5.000000e-003 0.000000e+000
         vertex 3.321554e-002 3.310635e-002 0.000000e+000
         vertex 3.439414e-002 3.342215e-002 0.000000e+000
      endloop
   endfacet
   facet normal 0.000000e+000 0.000000e+000 -1.000000e+000
      outer loop
         vertex 3.439414e-002 3.342215e-002 0.000000e+000
         vertex 3.550000e-002 3.393782e-002 0.000000e+000
         vertex 4.700000e-002 5.000000e-003 0.000000e+000
      endloop
   endfacet
   facet normal 0.000000e+000 0.000000e+000 -1.000000e+000
      outer loop
         vertex 4.700000e-002 5.000000e-003 0.000000e+000
         vertex 3.550000e-002 3.393782e-002 0.000000e+000
         vertex 3.649952e-002 3.463769e-002 0.000000e+000
      endloop
   endfacet
   facet normal 0.000000e+000 0.000000e+000 -1.000000e+000
      outer loop
         vertex 4.700000e-002 5.000000e-003 0.000000e+000
         vertex 3.649952e-002 3.463769e-002 0.000000e+000
         vertex 3.736231e-002 3.550049e-002 0.000000e+000
      endloop
   endfacet
   facet normal 0.000000e+000 0.000000e+000 -1.000000e+000
      outer loop
         vertex 4.700000e-002 6.000000e-002 0.000000e+000
         vertex 3.439414e-002 4.657785e-002 0.000000e+000
         vertex 3.321554e-002 4.689365e-002 0.000000e+000
      endloop
   endfacet
   facet normal 0.000000e+000 0.000000e+000 -1.000000e+000
      outer loop
         vertex 3.078446e-002 4.689365e-002 0.000000e+000
         vertex 2.960586e-002 4.657785e-002 0.000000e+000
         vertex 1.700000e-002 6.000000e-002 0.000000e+000
      endloop
   endfacet
   facet normal 0.000000e+000 0.000000e+000 -1.000000e+000
      outer loop
         vertex 1.700000e-002 6.000000e-002 0.000000e+000
         vertex 2.960586e-002 4.657785e-002 0.000000e+000
         vertex 2.850000e-002 4.606218e-002 0.000000e+000
      endloop
   endfacet
   facet normal 0.000000e+000 0.000000e+000 -1.000000e+000
      outer loop
         vertex 1.700000e-002 6.000000e-002 0.000000e+000
         vertex 2.850000e-002 4.606218e-002 0.000000e+000
         vertex 2.750049e-002 4.536231e-002 0.000000e+000
      endloop
   endfacet
   facet normal 0.000000e+000 0.000000e+000 -1.000000e+000
      outer loop
         vertex 3.857785e-002 3.760586e-002 0.000000e+000
         vertex 3.889365e-002 3.878446e-002 0.000000e+000
         vertex 4.700000e-002 5.000000e-003 0.000000e+000
      endloop
   endfacet
   facet normal 0.000000e+000 0.000000e+000 -1.000000e+000
      outer loop
         vertex 4.700000e-002 5.000000e-003 0.000000e+000
         vertex 3.889365e-002 3.878446e-002 0.000000e+000
         vertex 3.900000e-002 4.000000e-002 0.000000e+000
      endloop
   endfacet
   facet normal 0.000000e+000 0.000000e+000 -1.000000e+000
      outer loop
         vertex 4.700000e-002 5.000000e-003 0.000000e+000
         vertex 3.900000e-002 4.000000e-002 0.000000e+000
         vertex 4.700000e-002 6.000000e-002 0.000000e+000
      endloop
   endfacet
   facet normal 0.000000e+000 0.000000e+000 -1.000000e+000
      outer loop
         vertex 4.700000e-002 6.000000e-002 0.000000e+000
         vertex 3.900000e-002 4.000000e-002 0.000000e+000
         vertex 3.889365e-002 4.121554e-002 0.000000e+000
      endloop
   endfacet
   facet normal 0.000000e+000 0.000000e+000 -1.000000e+000
      outer loop
         vertex 2.750049e-002 4.536231e-002 0.000000e+000
         vertex 2.663769e-002 4.449951e-002 0.000000e+000
         vertex 1.700000e-002 6.000000e-002 0.000000e+000
      endloop
   endfacet
   facet normal 0.000000e+000 0.000000e+000 -1.000000e+000
      outer loop
         vertex 1.700000e-002 6.000000e-002 0.000000e+000
         vertex 2.663769e-002 4.449951e-002 0.000000e+000
         vertex 2.593782e-002 4.350000e-002 0.000000e+000
      endloop
   endfacet
   facet normal 0.000000e+000 0.000000e+000 -1.000000e+000
      outer loop
         vertex 1.700000e-002 6.000000e-002 0.000000e+000
         vertex 2.593782e-002 4.350000e-002 0.000000e+000
         vertex 2.542215e-002 4.239414e-002 0.000000e+000
      endloop
   endfacet
   facet normal 0.000000e+000 0.000000e+000 -1.000000e+000
      outer loop
         vertex 2.542215e-002 4.239414e-002 0.000000e+000
         vertex 2.510635e-002 4.121554e-002 0.000000e+000
         vertex 1.700000e-002 6.000000e-002 0.000000e+000
      endloop
   endfacet
   facet normal 0.000000e+000 0.000000e+000 -1.000000e+000
      outer loop
         vertex 1.700000e-002 6.000000e-002 0.000000e+000
         vertex 2.510635e-002 4.121554e-002 0.000000e+000
         vertex 2.500000e-002 4.000000e-002 0.000000e+000
      endloop
   endfacet
   facet normal 0.000000e+000 0.000000e+000 -1.000000e+000
      outer loop
         vertex 1.700000e-002 6.000000e-002 0.000000e+000
         vertex 2.500000e-002 4.000000e-002 0.000000e+000
         vertex 1.700000e-002 5.000000e-003 0.000000e+000
      endloop
   endfacet
   facet normal 0.000000e+000 0.000000e+000 -1.000000e+000
      outer loop
         vertex 1.700000e-002 5.000000e-003 0.000000e+000
         vertex 2.500000e-002 4.000000e-002 0.000000e+000
         vertex 2.510635e-002 3.878446e-002 0.000000e+000
      endloop
   endfacet
   facet normal 0.000000e+000 0.000000e+000 -1.000000e+000
      outer loop
         vertex 1.700000e-002 5.000000e-003 0.000000e+000
         vertex 2.510635e-002 3.878446e-002 0.000000e+000
         vertex 2.542215e-002 3.760586e-002 0.000000e+000
      endloop
   endfacet
   facet normal 0.000000e+000 0.000000e+000 -1.000000e+000
      outer loop
         vertex 3.889365e-002 4.121554e-002 0.000000e+000
         vertex 3.857785e-002 4.239414e-002 0.000000e+000
         vertex 4.700000e-002 6.000000e-002 0.000000e+000
      endloop
   endfacet
   facet normal 0.000000e+000 0.000000e+000 -1.000000e+000
      outer loop
         vertex 4.700000e-002 6.000000e-002 0.000000e+000
         vertex 3.857785e-002 4.239414e-002 0.000000e+000
         vertex 3.806218e-002 4.350000e-002 0.000000e+000
      endloop
   endfacet
   facet normal 0.000000e+000 0.000000e+000 -1.000000e+000
      outer loop
         vertex 4.700000e-002 6.000000e-002 0.000000e+000
         vertex 3.806218e-002 4.350000e-002 0.000000e+000
         vertex 3.736231e-002 4.449951e-002 0.000000e+000
      endloop
   endfacet
   facet normal 0.000000e+000 0.000000e+000 -1.000000e+000
      outer loop
         vertex 4.700000e-002 6.000000e-002 0.000000e+000
         vertex 3.321554e-002 4.689365e-002 0.000000e+000
         vertex 1.700000e-002 6.000000e-002 0.000000e+000
      endloop
   endfacet
   facet normal 0.000000e+000 0.000000e+000 -1.000000e+000
      outer loop
         vertex 1.700000e-002 6.000000e-002 0.000000e+000
         vertex 3.321554e-002 4.689365e-002 0.000000e+000
         vertex 3.200000e-002 4.700000e-002 0.000000e+000
      endloop
   endfacet
   facet normal 0.000000e+000 0.000000e+000 -1.000000e+000
      outer loop
         vertex 1.700000e-002 6.000000e-002 0.000000e+000
         vertex 3.200000e-002 4.700000e-002 0.000000e+000
         vertex 3.078446e-002 4.689365e-002 0.000000e+000
      endloop
   endfacet
   facet normal 0.000000e+000 0.000000e+000 -1.000000e+000
      outer loop
         vertex 3.736231e-002 4.449951e-002 0.000000e+000
         vertex 3.649952e-002 4.536231e-002 0.000000e+000
         vertex 4.700000e-002 6.000000e-002 0.000000e+000
      endloop
   endfacet
   facet normal 0.000000e+000 0.000000e+000 -1.000000e+000
      outer loop
         vertex 4.700000e-002 6.000000e-002 0.000000e+000
         vertex 3.649952e-002 4.536231e-002 0.000000e+000
         vertex 3.550000e-002 4.606218e-002 0.000000e+000
      endloop
   endfacet
   facet normal 0.000000e+000 0.000000e+000 -1.000000e+000
      outer loop
         vertex 4.700000e-002 6.000000e-002 0.000000e+000
         vertex 3.550000e-002 4.606218e-002 0.000000e+000
         vertex 3.439414e-002 4.657785e-002 0.000000e+000
      endloop
   endfacet
   facet normal -1.000000e+000 0.000000e+000 0.000000e+000
      outer loop
         vertex 0.000000e+000 5.000000e-003 1.600000e-002
         vertex 0.000000e+000 5.000000e-003 0.000000e+000
         vertex 0.000000e+000 0.000000e+000 1.600000e-002
      endloop
   endfacet
   facet normal -1.000000e+000 0.000000e+000 0.000000e+000
      outer loop
         vertex 0.000000e+000 0.000000e+000 1.600000e-002
         vertex 0.000000e+000 5.000000e-003 0.000000e+000
         vertex 0.000000e+000 0.000000e+000 0.000000e+000
      endloop
   endfacet
   facet normal 0.000000e+000 0.000000e+000 1.000000e+000
      outer loop
         vertex 0.000000e+000 5.000000e-003 1.600000e-002
         vertex 0.000000e+000 0.000000e+000 1.600000e-002
         vertex 1.700000e-002 5.000000e-003 1.600000e-002
      endloop
   endfacet
   facet normal 0.000000e+000 0.000000e+000 1.000000e+000
      outer loop
         vertex 1.700000e-002 5.000000e-003 1.600000e-002
         vertex 0.000000e+000 0.000000e+000 1.600000e-002
         vertex 6.400000e-002 0.000000e+000 1.600000e-002
      endloop
   endfacet
   facet normal 0.000000e+000 0.000000e+000 1.000000e+000
      outer loop
         vertex 1.700000e-002 5.000000e-003 1.600000e-002
         vertex 6.400000e-002 0.000000e+000 1.600000e-002
         vertex 4.700000e-002 5.000000e-003 1.600000e-002
      endloop
   endfacet
   facet normal 0.000000e+000 0.000000e+000 1.000000e+000
      outer loop
         vertex 4.700000e-002 5.000000e-003 1.600000e-002
         vertex 6.400000e-002 0.000000e+000 1.600000e-002
         vertex 6.400000e-002 5.000000e-003 1.600000e-002
      endloop
   endfacet
   facet normal 0.000000e+000 0.000000e+000 1.000000e+000
      outer loop
         vertex 3.857785e-002 3.760586e-002 1.600000e-002
         vertex 3.806218e-002 3.650000e-002 1.600000e-002
         vertex 4.700000e-002 5.000000e-003 1.600000e-002
      endloop
   endfacet
   facet normal 0.000000e+000 0.000000e+000 1.000000e+000
      outer loop
         vertex 3.806218e-002 3.650000e-002 1.600000e-002
         vertex 3.736231e-002 3.550049e-002 1.600000e-002
         vertex 4.700000e-002 5.000000e-003 1.600000e-002
      endloop
   endfacet
   facet normal 0.000000e+000 0.000000e+000 1.000000e+000
      outer loop
         vertex 4.700000e-002 5.000000e-003 1.600000e-002
         vertex 3.736231e-002 3.550049e-002 1.600000e-002
         vertex 3.649952e-002 3.463769e-002 1.600000e-002
      endloop
   endfacet
   facet normal 0.000000e+000 0.000000e+000 1.000000e+000
      outer loop
         vertex 4.700000e-002 5.000000e-003 1.600000e-002
         vertex 3.649952e-002 3.463769e-002 1.600000e-002
         vertex 3.550000e-002 3.393782e-002 1.600000e-002
      endloop
   endfacet
   facet normal 0.000000e+000 0.000000e+000 1.000000e+000
      outer loop
         vertex 3.550000e-002 3.393782e-002 1.600000e-002
         vertex 3.439414e-002 3.342215e-002 1.600000e-002
         vertex 4.700000e-002 5.000000e-003 1.600000e-002
      endloop
   endfacet
   facet normal 0.000000e+000 0.000000e+000 1.000000e+000
      outer loop
         vertex 4.700000e-002 5.000000e-003 1.600000e-002
         vertex 3.439414e-002 3.342215e-002 1.600000e-002
         vertex 3.321554e-002 3.310635e-002 1.600000e-002
      endloop
   endfacet
   facet normal 0.000000e+000 0.000000e+000 1.000000e+000
      outer loop
         vertex 4.700000e-002 5.000000e-003 1.600000e-002
         vertex 3.321554e-002 3.310635e-002 1.600000e-002
         vertex 1.700000e-002 5.000000e-003 1.600000e-002
      endloop
   endfacet
   facet normal 0.000000e+000 0.000000e+000 1.000000e+000
      outer loop
         vertex 1.700000e-002 5.000000e-003 1.600000e-002
         vertex 3.321554e-002 3.310635e-002 1.600000e-002
         vertex 3.200000e-002 3.300000e-002 1.600000e-002
      endloop
   endfacet
   facet normal 0.000000e+000 0.000000e+000 1.000000e+000
      outer loop
         vertex 1.700000e-002 5.000000e-003 1.600000e-002
         vertex 3.200000e-002 3.300000e-002 1.600000e-002
         vertex 3.078446e-002 3.310635e-002 1.600000e-002
      endloop
   endfacet
   facet normal 0.000000e+000 0.000000e+000 1.000000e+000
      outer loop
         vertex 2.750049e-002 3.463769e-002 1.600000e-002
         vertex 2.663769e-002 3.550049e-002 1.600000e-002
         vertex 1.700000e-002 5.000000e-003 1.600000e-002
      endloop
   endfacet
   facet normal 0.000000e+000 0.000000e+000 1.000000e+000
      outer loop
         vertex 1.700000e-002 5.000000e-003 1.600000e-002
         vertex 2.663769e-002 3.550049e-002 1.600000e-002
         vertex 2.593782e-002 3.650000e-002 1.600000e-002
      endloop
   endfacet
   facet normal 0.000000e+000 0.000000e+000 1.000000e+000
      outer loop
         vertex 1.700000e-002 5.000000e-003 1.600000e-002
         vertex 2.593782e-002 3.650000e-002 1.600000e-002
         vertex 2.542215e-002 3.760586e-002 1.600000e-002
      endloop
   endfacet
   facet normal 0.000000e+000 0.000000e+000 1.000000e+000
      outer loop
         vertex 3.857785e-002 4.239414e-002 1.600000e-002
         vertex 3.889365e-002 4.121554e-002 1.600000e-002
         vertex 4.700000e-002 6.000000e-002 1.600000e-002
      endloop
   endfacet
   facet normal 0.000000e+000 0.000000e+000 1.000000e+000
      outer loop
         vertex 4.700000e-002 6.000000e-002 1.600000e-002
         vertex 3.889365e-002 4.121554e-002 1.600000e-002
         vertex 3.900000e-002 4.000000e-002 1.600000e-002
      endloop
   endfacet
   facet normal 0.000000e+000 0.000000e+000 1.000000e+000
      outer loop
         vertex 4.700000e-002 6.000000e-002 1.600000e-002
         vertex 3.900000e-002 4.000000e-002 1.600000e-002
         vertex 4.700000e-002 5.000000e-003 1.600000e-002
      endloop
   endfacet
   facet normal 0.000000e+000 0.000000e+000 1.000000e+000
      outer loop
         vertex 4.700000e-002 5.000000e-003 1.600000e-002
         vertex 3.900000e-002 4.000000e-002 1.600000e-002
         vertex 3.889365e-002 3.878446e-002 1.600000e-002
      endloop
   endfacet
   facet normal 0.000000e+000 0.000000e+000 1.000000e+000
      outer loop
         vertex 4.700000e-002 5.000000e-003 1.600000e-002
         vertex 3.889365e-002 3.878446e-002 1.600000e-002
         vertex 3.857785e-002 3.760586e-002 1.600000e-002
      endloop
   endfacet
   facet normal 0.000000e+000 0.000000e+000 1.000000e+000
      outer loop
         vertex 3.078446e-002 3.310635e-002 1.600000e-002
         vertex 2.960586e-002 3.342215e-002 1.600000e-002
         vertex 1.700000e-002 5.000000e-003 1.600000e-002
      endloop
   endfacet
   facet normal 0.000000e+000 0.000000e+000 1.000000e+000
      outer loop
         vertex 1.700000e-002 5.000000e-003 1.600000e-002
         vertex 2.960586e-002 3.342215e-002 1.600000e-002
         vertex 2.850000e-002 3.393782e-002 1.600000e-002
      endloop
   endfacet
   facet normal 0.000000e+000 0.000000e+000 1.000000e+000
      outer loop
         vertex 1.700000e-002 5.000000e-003 1.600000e-002
         vertex 2.850000e-002 3.393782e-002 1.600000e-002
         vertex 2.750049e-002 3.463769e-002 1.600000e-002
      endloop
   endfacet
   facet normal 0.000000e+000 0.000000e+000 1.000000e+000
      outer loop
         vertex 2.542215e-002 4.239414e-002 1.600000e-002
         vertex 2.593782e-002 4.350000e-002 1.600000e-002
         vertex 1.700000e-002 6.000000e-002 1.600000e-002
      endloop
   endfacet
   facet normal 0.000000e+000 0.000000e+000 1.000000e+000
      outer loop
         vertex 1.700000e-002 6.000000e-002 1.600000e-002
         vertex 2.593782e-002 4.350000e-002 1.600000e-002
         vertex 2.663769e-002 4.449951e-002 1.600000e-002
      endloop
   endfacet
   facet normal 0.000000e+000 0.000000e+000 1.000000e+000
      outer loop
         vertex 2.663769e-002 4.449951e-002 1.600000e-002
         vertex 2.750049e-002 4.536231e-002 1.600000e-002
         vertex 1.700000e-002 6.000000e-002 1.600000e-002
      endloop
   endfacet
   facet normal 0.000000e+000 0.000000e+000 1.000000e+000
      outer loop
         vertex 1.700000e-002 6.000000e-002 1.600000e-002
         vertex 2.750049e-002 4.536231e-002 1.600000e-002
         vertex 2.850000e-002 4.606218e-002 1.600000e-002
      endloop
   endfacet
   facet normal 0.000000e+000 0.000000e+000 1.000000e+000
      outer loop
         vertex 1.700000e-002 6.000000e-002 1.600000e-002
         vertex 2.850000e-002 4.606218e-002 1.600000e-002
         vertex 2.960586e-002 4.657785e-002 1.600000e-002
      endloop
   endfacet
   facet normal 0.000000e+000 0.000000e+000 1.000000e+000
      outer loop
         vertex 3.321554e-002 4.689365e-002 1.600000e-002
         vertex 4.700000e-002 6.000000e-002 1.600000e-002
         vertex 3.200000e-002 4.700000e-002 1.600000e-002
      endloop
   endfacet
   facet normal 0.000000e+000 0.000000e+000 1.000000e+000
      outer loop
         vertex 3.200000e-002 4.700000e-002 1.600000e-002
         vertex 4.700000e-002 6.000000e-002 1.600000e-002
         vertex 1.700000e-002 6.000000e-002 1.600000e-002
      endloop
   endfacet
   facet normal 0.000000e+000 0.000000e+000 1.000000e+000
      outer loop
         vertex 3.200000e-002 4.700000e-002 1.600000e-002
         vertex 1.700000e-002 6.000000e-002 1.600000e-002
         vertex 3.078446e-002 4.689365e-002 1.600000e-002
      endloop
   endfacet
   facet normal 0.000000e+000 0.000000e+000 1.000000e+000
      outer loop
         vertex 3.078446e-002 4.689365e-002 1.600000e-002
         vertex 1.700000e-002 6.000000e-002 1.600000e-002
         vertex 2.960586e-002 4.657785e-002 1.600000e-002
      endloop
   endfacet
   facet normal 0.000000e+000 0.000000e+000 1.000000e+000
      outer loop
         vertex 3.321554e-002 4.689365e-002 1.600000e-002
         vertex 3.439414e-002 4.657785e-002 1.600000e-002
         vertex 4.700000e-002 6.000000e-002 1.600000e-002
      endloop
   endfacet
   facet normal 0.000000e+000 0.000000e+000 1.000000e+000
      outer loop
         vertex 4.700000e-002 6.000000e-002 1.600000e-002
         vertex 3.439414e-002 4.657785e-002 1.600000e-002
         vertex 3.550000e-002 4.606218e-002 1.600000e-002
      endloop
   endfacet
   facet normal 0.000000e+000 0.000000e+000 1.000000e+000
      outer loop
         vertex 4.700000e-002 6.000000e-002 1.600000e-002
         vertex 3.550000e-002 4.606218e-002 1.600000e-002
         vertex 3.649952e-002 4.536231e-002 1.600000e-002
      endloop
   endfacet
   facet normal 0.000000e+000 0.000000e+000 1.000000e+000
      outer loop
         vertex 2.542215e-002 3.760586e-002 1.600000e-002
         vertex 2.510635e-002 3.878446e-002 1.600000e-002
         vertex 1.700000e-002 5.000000e-003 1.600000e-002
      endloop
   endfacet
   facet normal 0.000000e+000 0.000000e+000 1.000000e+000
      outer loop
         vertex 1.700000e-002 5.000000e-003 1.600000e-002
         vertex 2.510635e-002 3.878446e-002 1.600000e-002
         vertex 2.500000e-002 4.000000e-002 1.600000e-002
      endloop
   endfacet
   facet normal 0.000000e+000 0.000000e+000 1.000000e+000
      outer loop
         vertex 1.700000e-002 5.000000e-003 1.600000e-002
         vertex 2.500000e-002 4.000000e-002 1.600000e-002
         vertex 1.700000e-002 6.000000e-002 1.600000e-002
      endloop
   endfacet
   facet normal 0.000000e+000 0.000000e+000 1.000000e+000
      outer loop
         vertex 1.700000e-002 6.000000e-002 1.600000e-002
         vertex 2.500000e-002 4.000000e-002 1.600000e-002
         vertex 2.510635e-002 4.121554e-002 1.600000e-002
      endloop
   endfacet
   facet normal 0.000000e+000 0.000000e+000 1.000000e+000
      outer loop
         vertex 1.700000e-002 6.000000e-002 1.600000e-002
         vertex 2.510635e-002 4.121554e-002 1.600000e-002
         vertex 2.542215e-002 4.239414e-002 1.600000e-002
      endloop
   endfacet
   facet normal 0.000000e+000 0.000000e+000 1.000000e+000
      outer loop
         vertex 3.649952e-002 4.536231e-002 1.600000e-002
         vertex 3.736231e-002 4.449951e-002 1.600000e-002
         vertex 4.700000e-002 6.000000e-002 1.600000e-002
      endloop
   endfacet
   facet normal 0.000000e+000 0.000000e+000 1.000000e+000
      outer loop
         vertex 4.700000e-002 6.000000e-002 1.600000e-002
         vertex 3.736231e-002 4.449951e-002 1.600000e-002
         vertex 3.806218e-002 4.350000e-002 1.600000e-002
      endloop
   endfacet
   facet normal 0.000000e+000 0.000000e+000 1.000000e+000
      outer loop
         vertex 4.700000e-002 6.000000e-002 1.600000e-002
         vertex 3.806218e-002 4.350000e-002 1.600000e-002
         vertex 3.857785e-002 4.239414e-002 1.600000e-002
      endloop
   endfacet
   facet normal 0.000000e+000 -1.000000e+000 0.000000e+000
      outer loop
         vertex 0.000000e+000 0.000000e+000 1.600000e-002
         vertex 0.000000e+000 0.000000e+000 0.000000e+000
         vertex 6.400000e-002 0.000000e+000 1.600000e-002
      endloop
   endfacet
   facet normal 0.000000e+000 -1.000000e+000 0.000000e+000
      outer loop
         vertex 6.400000e-002 0.000000e+000 1.600000e-002
         vertex 0.000000e+000 0.000000e+000 0.000000e+000
         vertex 6.400000e-002 0.000000e+000 0.000000e+000
      endloop
   endfacet
   facet normal 1.000000e+000 0.000000e+000 0.000000e+000
      outer loop
         vertex 4.700000e-002 6.000000e-002 0.000000e+000
         vertex 4.700000e-002 6.000000e-002 1.600000e-002
         vertex 4.700000e-002 5.000000e-003 0.000000e+000
      endloop
   endfacet
   facet normal 1.000000e+000 0.000000e+000 0.000000e+000
      outer loop
         vertex 4.700000e-002 5.000000e-003 0.000000e+000
         vertex 4.700000e-002 6.000000e-002 1.600000e-002
         vertex 4.700000e-002 5.000000e-003 1.600000e-002
      endloop
   endfacet
   facet normal -1.000000e+000 0.000000e+000 0.000000e+000
      outer loop
         vertex 1.700000e-002 6.000000e-002 1.600000e-002
         vertex 1.700000e-002 6.000000e-002 0.000000e+000
         vertex 1.700000e-002 5.000000e-003 1.600000e-002
      endloop
   endfacet
   facet normal -1.000000e+000 0.000000e+000 0.000000e+000
      outer loop
         vertex 1.700000e-002 5.000000e-003 1.600000e-002
         vertex 1.700000e-002 6.000000e-002 0.000000e+000
         vertex 1.700000e-002 5.000000e-003 0.000000e+000
      endloop
   endfacet
   facet normal 0.000000e+000 1.000000e+000 0.000000e+000
      outer loop
         vertex 1.700000e-002 6.000000e-002 0.000000e+000
         vertex 1.700000e-002 6.000000e-002 1.600000e-002
         vertex 4.700000e-002 6.000000e-002 0.000000e+000
      endloop
   endfacet
   facet normal 0.000000e+000 1.000000e+000 0.000000e+000
      outer loop
         vertex 4.700000e-002 6.000000e-002 0.000000e+000
         vertex 1.700000e-002 6.000000e-002 1.600000e-002
         vertex 4.700000e-002 6.000000e-002 1.600000e-002
      endloop
   endfacet
   facet normal -9.983119e-001 -5.807913e-002 0.000000e+000
      outer loop
         vertex 3.900000e-002 4.000000e-002 0.000000e+000
         vertex 3.900000e-002 4.000000e-002 1.600000e-002
         vertex 3.889365e-002 4.121554e-002 0.000000e+000
      endloop
   endfacet
   facet normal -9.932307e-001 -1.161583e-001 0.000000e+000
      outer loop
         vertex 3.889365e-002 4.121554e-002 0.000000e+000
         vertex 3.900000e-002 4.000000e-002 1.600000e-002
         vertex 3.889365e-002 4.121554e-002 1.600000e-002
      endloop
   endfacet
   facet normal -9.730600e-001 -2.305519e-001 0.000000e+000
      outer loop
         vertex 3.889365e-002 4.121554e-002 0.000000e+000
         vertex 3.889365e-002 4.121554e-002 1.600000e-002
         vertex 3.857785e-002 4.239414e-002 0.000000e+000
      endloop
   endfacet
   facet normal -9.579706e-001 -2.868663e-001 0.000000e+000
      outer loop
         vertex 3.857785e-002 4.239414e-002 0.000000e+000
         vertex 3.889365e-002 4.121554e-002 1.600000e-002
         vertex 3.857785e-002 4.239414e-002 1.600000e-002
      endloop
   endfacet
   facet normal -9.182422e-001 -3.960194e-001 0.000000e+000
      outer loop
         vertex 3.857785e-002 4.239414e-002 0.000000e+000
         vertex 3.857785e-002 4.239414e-002 1.600000e-002
         vertex 3.806218e-002 4.350000e-002 0.000000e+000
      endloop
   endfacet
   facet normal -8.936031e-001 -4.488580e-001 0.000000e+000
      outer loop
         vertex 3.806218e-002 4.350000e-002 0.000000e+000
         vertex 3.857785e-002 4.239414e-002 1.600000e-002
         vertex 3.806218e-002 4.350000e-002 1.600000e-002
      endloop
   endfacet
   facet normal -8.355240e-001 -5.494540e-001 0.000000e+000
      outer loop
         vertex 3.806218e-002 4.350000e-002 0.000000e+000
         vertex 3.806218e-002 4.350000e-002 1.600000e-002
         vertex 3.736231e-002 4.449951e-002 0.000000e+000
      endloop
   endfacet
   facet normal -8.020838e-001 -5.972114e-001 0.000000e+000
      outer loop
         vertex 3.736231e-002 4.449951e-002 0.000000e+000
         vertex 3.806218e-002 4.350000e-002 1.600000e-002
         vertex 3.736231e-002 4.449951e-002 1.600000e-002
      endloop
   endfacet
   facet normal -7.274188e-001 -6.861938e-001 0.000000e+000
      outer loop
         vertex 3.736231e-002 4.449951e-002 0.000000e+000
         vertex 3.736231e-002 4.449951e-002 1.600000e-002
         vertex 3.649952e-002 4.536231e-002 0.000000e+000
      endloop
   endfacet
   facet normal -6.861938e-001 -7.274188e-001 0.000000e+000
      outer loop
         vertex 3.649952e-002 4.536231e-002 0.000000e+000
         vertex 3.736231e-002 4.449951e-002 1.600000e-002
         vertex 3.649952e-002 4.536231e-002 1.600000e-002
      endloop
   endfacet
   facet normal -5.972114e-001 -8.020838e-001 0.000000e+000
      outer loop
         vertex 3.649952e-002 4.536231e-002 0.000000e+000
         vertex 3.649952e-002 4.536231e-002 1.600000e-002
         vertex 3.550000e-002 4.606218e-002 0.000000e+000
      endloop
   endfacet
   facet normal -5.494540e-001 -8.355240e-001 0.000000e+000
      outer loop
         vertex 3.550000e-002 4.606218e-002 0.000000e+000
         vertex 3.649952e-002 4.536231e-002 1.600000e-002
         vertex 3.550000e-002 4.606218e-002 1.600000e-002
      endloop
   endfacet
   facet normal -4.488580e-001 -8.936031e-001 0.000000e+000
      outer loop
         vertex 3.550000e-002 4.606218e-002 0.000000e+000
         vertex 3.550000e-002 4.606218e-002 1.600000e-002
         vertex 3.439414e-002 4.657785e-002 0.000000e+000
      endloop
   endfacet
   facet normal -3.960194e-001 -9.182422e-001 0.000000e+000
      outer loop
         vertex 3.439414e-002 4.657785e-002 0.000000e+000
         vertex 3.550000e-002 4.606218e-002 1.600000e-002
         vertex 3.439414e-002 4.657785e-002 1.600000e-002
      endloop
   endfacet
   facet normal -2.868663e-001 -9.579706e-001 0.000000e+000
      outer loop
         vertex 3.439414e-002 4.657785e-002 0.000000e+000
         vertex 3.439414e-002 4.657785e-002 1.600000e-002
         vertex 3.321554e-002 4.689365e-002 0.000000e+000
      endloop
   endfacet
   facet normal -2.305519e-001 -9.730600e-001 0.000000e+000
      outer loop
         vertex 3.321554e-002 4.689365e-002 0.000000e+000
         vertex 3.439414e-002 4.657785e-002 1.600000e-002
         vertex 3.321554e-002 4.689365e-002 1.600000e-002
      endloop
   endfacet
   facet normal -1.161583e-001 -9.932307e-001 0.000000e+000
      outer loop
         vertex 3.321554e-002 4.689365e-002 0.000000e+000
         vertex 3.321554e-002 4.689365e-002 1.600000e-002
         vertex 3.200000e-002 4.700000e-002 0.000000e+000
      endloop
   endfacet
   facet normal -5.807913e-002 -9.983119e-001 0.000000e+000
      outer loop
         vertex 3.200000e-002 4.700000e-002 0.000000e+000
         vertex 3.321554e-002 4.689365e-002 1.600000e-002
         vertex 3.200000e-002 4.700000e-002 1.600000e-002
      endloop
   endfacet
   facet normal 5.807913e-002 -9.983119e-001 0.000000e+000
      outer loop
         vertex 3.200000e-002 4.700000e-002 0.000000e+000
         vertex 3.200000e-002 4.700000e-002 1.600000e-002
         vertex 3.078446e-002 4.689365e-002 0.000000e+000
      endloop
   endfacet
   facet normal 1.161583e-001 -9.932307e-001 0.000000e+000
      outer loop
         vertex 3.078446e-002 4.689365e-002 0.000000e+000
         vertex 3.200000e-002 4.700000e-002 1.600000e-002
         vertex 3.078446e-002 4.689365e-002 1.600000e-002
      endloop
   endfacet
   facet normal 2.305519e-001 -9.730600e-001 0.000000e+000
      outer loop
         vertex 3.078446e-002 4.689365e-002 0.000000e+000
         vertex 3.078446e-002 4.689365e-002 1.600000e-002
         vertex 2.960586e-002 4.657785e-002 0.000000e+000
      endloop
   endfacet
   facet normal 2.868663e-001 -9.579706e-001 0.000000e+000
      outer loop
         vertex 2.960586e-002 4.657785e-002 0.000000e+000
         vertex 3.078446e-002 4.689365e-002 1.600000e-002
         vertex 2.960586e-002 4.657785e-002 1.600000e-002
      endloop
   endfacet
   facet normal 3.960194e-001 -9.182422e-001 0.000000e+000
      outer loop
         vertex 2.960586e-002 4.657785e-002 0.000000e+000
         vertex 2.960586e-002 4.657785e-002 1.600000e-002
         vertex 2.850000e-002 4.606218e-002 0.000000e+000
      endloop
   endfacet
   facet normal 4.488580e-001 -8.936031e-001 0.000000e+000
      outer loop
         vertex 2.850000e-002 4.606218e-002 0.000000e+000
         vertex 2.960586e-002 4.657785e-002 1.600000e-002
         vertex 2.850000e-002 4.606218e-002 1.600000e-002
      endloop
   endfacet
   facet normal 5.494540e-001 -8.355240e-001 0.000000e+000
      outer loop
         vertex 2.850000e-002 4.606218e-002 0.000000e+000
         vertex 2.850000e-002 4.606218e-002 1.600000e-002
         vertex 2.750049e-002 4.536231e-002 0.000000e+000
      endloop
   endfacet
   facet normal 5.972114e-001 -8.020838e-001 0.000000e+000
      outer loop
         vertex 2.750049e-002 4.536231e-002 0.000000e+000
         vertex 2.850000e-002 4.606218e-002 1.600000e-002
         vertex 2.750049e-002 4.536231e-002 1.600000e-002
      endloop
   endfacet
   facet normal 6.861938e-001 -7.274188e-001 0.000000e+000
      outer loop
         vertex 2.750049e-002 4.536231e-002 0.000000e+000
         vertex 2.750049e-002 4.536231e-002 1.600000e-002
         vertex 2.663769e-002 4.449951e-002 0.000000e+000
      endloop
   endfacet
   facet normal 7.274188e-001 -6.861938e-001 0.000000e+000
      outer loop
         vertex 2.663769e-002 4.449951e-002 0.000000e+000
         vertex 2.750049e-002 4.536231e-002 1.600000e-002
         vertex 2.663769e-002 4.449951e-002 1.600000e-002
      endloop
   endfacet
   facet normal 8.020838e-001 -5.972114e-001 0.000000e+000
      outer loop
         vertex 2.663769e-002 4.449951e-002 0.000000e+000
         vertex 2.663769e-002 4.449951e-002 1.600000e-002
         vertex 2.593782e-002 4.350000e-002 0.000000e+000
      endloop
   endfacet
   facet normal 8.355240e-001 -5.494540e-001 0.000000e+000
      outer loop
         vertex 2.593782e-002 4.350000e-002 0.000000e+000
         vertex 2.663769e-002 4.449951e-002 1.600000e-002
         vertex 2.593782e-002 4.350000e-002 1.600000e-002
      endloop
   endfacet
   facet normal 8.936031e-001 -4.488580e-001 0.000000e+000
      outer loop
         vertex 2.593782e-002 4.350000e-002 0.000000e+000
         vertex 2.593782e-002 4.350000e-002 1.600000e-002
         vertex 2.542215e-002 4.239414e-002 0.000000e+000
      endloop
   endfacet
   facet normal 9.182422e-001 -3.960194e-001 0.000000e+000
      outer loop
         vertex 2.542215e-002 4.239414e-002 0.000000e+000
         vertex 2.593782e-002 4.350000e-002 1.600000e-002
         vertex 2.542215e-002 4.239414e-002 1.600000e-002
      endloop
   endfacet
   facet normal 9.579706e-001 -2.868663e-001 0.000000e+000
      outer loop
         vertex 2.542215e-002 4.239414e-002 0.000000e+000
         vertex 2.542215e-002 4.239414e-002 1.600000e-002
         vertex 2.510635e-002 4.121554e-002 0.000000e+000
      endloop
   endfacet
   facet normal 9.730600e-001 -2.305519e-001 0.000000e+000
      outer loop
         vertex 2.510635e-002 4.121554e-002 0.000000e+000
         vertex 2.542215e-002 4.239414e-002 1.600000e-002
         vertex 2.510635e-002 4.121554e-002 1.600000e-002
      endloop
   endfacet
   facet normal 9.932307e-001 -1.161583e-001 0.000000e+000
      outer loop
         vertex 2.510635e-002 4.121554e-002 0.000000e+000
         vertex 2.510635e-002 4.121554e-002 1.600000e-002
         vertex 2.500000e-002 4.000000e-002 0.000000e+000
      endloop
   endfacet
   facet normal 9.983119e-001 -5.807913e-002 0.000000e+000
      outer loop
         vertex 2.500000e-002 4.000000e-002 0.000000e+000
         vertex 2.510635e-002 4.121554e-002 1.600000e-002
         vertex 2.500000e-002 4.000000e-002 1.600000e-002
      endloop
   endfacet
   facet normal 9.983119e-001 5.807913e-002 0.000000e+000
      outer loop
         vertex 2.500000e-002 4.000000e-002 0.000000e+000
         vertex 2.500000e-002 4.000000e-002 1.600000e-002
         vertex 2.510635e-002 3.878446e-002 0.000000e+000
      endloop
   endfacet
   facet normal 9.932307e-001 1.161583e-001 0.000000e+000
      outer loop
         vertex 2.510635e-002 3.878446e-002 0.000000e+000
         vertex 2.500000e-002 4.000000e-002 1.600000e-002
         vertex 2.510635e-002 3.878446e-002 1.600000e-002
      endloop
   endfacet
   facet normal 9.730600e-001 2.305519e-001 0.000000e+000
      outer loop
         vertex 2.510635e-002 3.878446e-002 0.000000e+000
         vertex 2.510635e-002 3.878446e-002 1.600000e-002
         vertex 2.542215e-002 3.760586e-002 0.000000e+000
      endloop
   endfacet
   facet normal 9.579706e-001 2.868663e-001 0.000000e+000
      outer loop
         vertex 2.542215e-002 3.760586e-002 0.000000e+000
         vertex 2.510635e-002 3.878446e-002 1.600000e-002
         vertex 2.542215e-002 3.760586e-002 1.600000e-002
      endloop
   endfacet
   facet normal 9.182422e-001 3.960194e-001 0.000000e+000
      outer loop
         vertex 2.542215e-002 3.760586e-002 0.000000e+000
         vertex 2.542215e-002 3.760586e-002 1.600000e-002
         vertex 2.593782e-002 3.650000e-002 0.000000e+000
      endloop
   endfacet
   facet normal 8.936031e-001 4.488580e-001 0.000000e+000
      outer loop
         vertex 2.593782e-002 3.650000e-002 0.000000e+000
         vertex 2.542215e-002 3.760586e-002 1.600000e-002
         vertex 2.593782e-002 3.650000e-002 1.600000e-002
      endloop
   endfacet
   facet normal 8.355240e-001 5.494540e-001 0.000000e+000
      outer loop
         vertex 2.593782e-002 3.650000e-002 0.000000e+000
         vertex 2.593782e-002 3.650000e-002 1.600000e-002
         vertex 2.663769e-002 3.550049e-002 0.000000e+000
      endloop
   endfacet
   facet normal 8.020838e-001 5.972114e-001 0.000000e+000
      outer loop
         vertex 2.663769e-002 3.550049e-002 0.000000e+000
         vertex 2.593782e-002 3.650000e-002 1.600000e-002
         vertex 2.663769e-002 3.550049e-002 1.600000e-002
      endloop
   endfacet
   facet normal 7.274188e-001 6.861938e-001 0.000000e+000
      outer loop
         vertex 2.663769e-002 3.550049e-002 0.000000e+000
         vertex 2.663769e-002 3.550049e-002 1.600000e-002
         vertex 2.750049e-002 3.463769e-002 0.000000e+000
      endloop
   endfacet
   facet normal 6.861938e-001 7.274188e-001 0.000000e+000
      outer loop
         vertex 2.750049e-002 3.463769e-002 0.000000e+000
         vertex 2.663769e-002 3.550049e-002 1.600000e-002
         vertex 2.750049e-002 3.463769e-002 1.600000e-002
      endloop
   endfacet
   facet normal 5.972114e-001 8.020838e-001 0.000000e+000
      outer loop
         vertex 2.750049e-002 3.463769e-002 0.000000e+000
         vertex 2.750049e-002 3.463769e-002 1.600000e-002
         vertex 2.850000e-002 3.393782e-002 0.000000e+000
      endloop
   endfacet
   facet normal 5.494540e-001 8.355240e-001 0.000000e+000
      outer loop
         vertex 2.850000e-002 3.393782e-002 0.000000e+000
         vertex 2.750049e-002 3.463769e-002 1.600000e-002
         vertex 2.850000e-002 3.393782e-002 1.600000e-002
      endloop
   endfacet
   facet normal 4.488580e-001 8.936031e-001 0.000000e+000
      outer loop
         vertex 2.850000e-002 3.393782e-002 0.000000e+000
         vertex 2.850000e-002 3.393782e-002 1.600000e-002
         vertex 2.960586e-002 3.342215e-002 0.000000e+000
      endloop
   endfacet
   facet normal 3.960194e-001 9.182422e-001 0.000000e+000
      outer loop
         vertex 2.960586e-002 3.342215e-002 0.000000e+000
         vertex 2.850000e-002 3.393782e-002 1.600000e-002
         vertex 2.960586e-002 3.342215e-002 1.600000e-002
      endloop
   endfacet
   facet normal 2.868663e-001 9.579706e-001 0.000000e+000
      outer loop
         vertex 2.960586e-002 3.342215e-002 0.000000e+000
         vertex 2.960586e-002 3.342215e-002 1.600000e-002
         vertex 3.078446e-002 3.310635e-002 0.000000e+000
      endloop
   endfacet
   facet normal 2.305519e-001 9.730600e-001 0.000000e+000
      outer loop
         vertex 3.078446e-002 3.310635e-002 0.000000e+000
         vertex 2.960586e-002 3.342215e-002 1.600000e-002
         vertex 3.078446e-002 3.310635e-002 1.600000e-002
      endloop
   endfacet
   facet normal 1.161583e-001 9.932307e-001 0.000000e+000
      outer loop
         vertex 3.078446e-002 3.310635e-002 0.000000e+000
         vertex 3.078446e-002 3.310635e-002 1.600000e-002
         vertex 3.200000e-002 3.300000e-002 0.000000e+000
      endloop
   endfacet
   facet normal 5.807913e-002 9.983119e-001 0.000000e+000
      outer loop
         vertex 3.200000e-002 3.300000e-002 0.000000e+000
         vertex 3.078446e-002 3.310635e-002 1.600000e-002
         vertex 3.200000e-002 3.300000e-002 1.600000e-002
      endloop
   endfacet
   facet normal -5.807913e-002 9.983119e-001 0.000000e+000
      outer loop
         vertex 3.200000e-002 3.300000e-002 0.000000e+000
         vertex 3.200000e-002 3.300000e-002 1.600000e-002
         vertex 3.321554e-002 3.310635e-002 0.000000e+000
      endloop
   endfacet
   facet normal -1.161583e-001 9.932307e-001 0.000000e+000
      outer loop
         vertex 3.321554e-002 3.310635e-002 0.000000e+000
         vertex 3.200000e-002 3.300000e-002 1.600000e-002
         vertex 3.321554e-002 3.310635e-002 1.600000e-002
      endloop
   endfacet
   facet normal -2.305519e-001 9.730600e-001 0.000000e+000
      outer loop
         vertex 3.321554e-002 3.310635e-002 0.000000e+000
         vertex 3.321554e-002 3.310635e-002 1.600000e-002
         vertex 3.439414e-002 3.342215e-002 0.000000e+000
      endloop
   endfacet
   facet normal -2.868663e-001 9.579706e-001 0.000000e+000
      outer loop
         vertex 3.439414e-002 3.342215e-002 0.000000e+000
         vertex 3.321554e-002 3.310635e-002 1.600000e-002
         vertex 3.439414e-002 3.342215e-002 1.600000e-002
      endloop
   endfacet
   facet normal -3.960194e-001 9.182422e-001 0.000000e+000
      outer loop
         vertex 3.439414e-002 3.342215e-002 0.000000e+000
         vertex 3.439414e-002 3.342215e-002 1.600000e-002
         vertex 3.550000e-002 3.393782e-002 0.000000e+000
      endloop
   endfacet
   facet normal -4.488580e-001 8.936031e-001 0.000000e+000
      outer loop
         vertex 3.550000e-002 3.393782e-002 0.000000e+000
         vertex 3.439414e-002 3.342215e-002 1.600000e-002
         vertex 3.550000e-002 3.393782e-002 1.600000e-002
      endloop
   endfacet
   facet normal -5.494540e-001 8.355240e-001 0.000000e+000
      outer loop
         vertex 3.550000e-002 3.393782e-002 0.000000e+000
         vertex 3.550000e-002 3.393782e-002 1.600000e-002
         vertex 3.649952e-002 3.463769e-002 0.000000e+000
      endloop
   endfacet
   facet normal -5.972114e-001 8.020838e-001 0.000000e+000
      outer loop
         vertex 3.649952e-002 3.463769e-002 0.000000e+000
         vertex 3.550000e-002 3.393782e-002 1.600000e-002
         vertex 3.649952e-002 3.463769e-002 1.600000e-002
      endloop
   endfacet
   facet normal -6.861938e-001 7.274188e-001 0.000000e+000
      outer loop
         vertex 3.649952e-002 3.463769e-002 0.000000e+000
         vertex 3.649952e-002 3.463769e-002 1.600000e-002
         vertex 3.736231e-002 3.550049e-002 0.000000e+000
      endloop
   endfacet
   facet normal -7.274188e-001 6.861938e-001 0.000000e+000
      outer loop
         vertex 3.736231e-002 3.550049e-002 0.000000e+000
         vertex 3.649952e-002 3.463769e-002 1.600000e-002
         vertex 3.736231e-002 3.550049e-002 1.600000e-002
      endloop
   endfacet
   facet normal -8.020838e-001 5.972114e-001 0.000000e+000
      outer loop
         vertex 3.736231e-002 3.550049e-002 0.000000e+000
         vertex 3.736231e-002 3.550049e-002 1.600000e-002
         vertex 3.806218e-002 3.650000e-002 0.000000e+000
      endloop
   endfacet
   facet normal -8.355240e-001 5.494540e-001 0.000000e+000
      outer loop
         vertex 3.806218e-002 3.650000e-002 0.000000e+000
         vertex 3.736231e-002 3.550049e-002 1.600000e-002
         vertex 3.806218e-002 3.650000e-002 1.600000e-002
      endloop
   endfacet
   facet normal -8.936031e-001 4.488580e-001 0.000000e+000
      outer loop
         vertex 3.806218e-002 3.650000e-002 0.000000e+000
         vertex 3.806218e-002 3.650000e-002 1.600000e-002
         vertex 3.857785e-002 3.760586e-002 0.000000e+000
      endloop
   endfacet
   facet normal -9.182422e-001 3.960194e-001 0.000000e+000
      outer loop
         vertex 3.857785e-002 3.760586e-002 0.000000e+000
         vertex 3.806218e-002 3.650000e-002 1.600000e-002
         vertex 3.857785e-002 3.760586e-002 1.600000e-002
      endloop
   endfacet
   facet normal -9.579706e-001 2.868663e-001 0.000000e+000
      outer loop
         vertex 3.857785e-002 3.760586e-002 0.000000e+000
         vertex 3.857785e-002 3.760586e-002 1.600000e-002
         vertex 3.889365e-002 3.878446e-002 0.000000e+000
      endloop
   endfacet
   facet normal -9.730600e-001 2.305519e-001 0.000000e+000
      outer loop
         vertex 3.889365e-002 3.878446e-002 0.000000e+000
         vertex 3.857785e-002 3.760586e-002 1.600000e-002
         vertex 3.889365e-002 3.878446e-002 1.600000e-002
      endloop
   endfacet
   facet normal -9.932307e-001 1.161583e-001 0.000000e+000
      outer loop
         vertex 3.889365e-002 3.878446e-002 0.000000e+000
         vertex 3.889365e-002 3.878446e-002 1.600000e-002
         vertex 3.900000e-002 4.000000e-002 0.000000e+000
      endloop
   endfacet
   facet normal -9.983119e-001 5.807913e-002 0.000000e+000
      outer loop
         vertex 3.900000e-002 4.000000e-002 0.000000e+000
         vertex 3.889365e-002 3.878446e-002 1.600000e-002
         vertex 3.900000e-002 4.000000e-002 1.600000e-002
      endloop
   endfacet
endsolid